<svg width="25" height="25" viewBox="0 0 25 25" fill="none" xmlns="http://www.w3.org/2000/svg"><path d="M12.5 25C5.607 25 0 19.393 0 12.5S5.607 0 12.5 0 25 5.607 25 12.5 19.393 25 12.5 25zm0-23.438C6.469 1.563 1.562 6.47 1.562 12.5c0 6.031 4.907 10.938 10.938 10.938 6.031 0 10.938-4.907 10.938-10.938 0-6.031-4.907-10.938-10.938-10.938z" fill="#fff"/><path d="M17.969 13.281H7.03a.781.781 0 010-1.562h10.94a.781.781 0 010 1.562z" fill="#fff"/><path d="M12.5 18.75a.781.781 0 01-.781-.781V7.03a.781.781 0 011.562 0v10.94c0 .431-.35.781-.781.781z" fill="#fff"/></svg>