<svg width="35" height="35" viewBox="0 0 35 35" fill="none" xmlns="http://www.w3.org/2000/svg"><path d="M17.5 0C10.423 0 4.665 5.758 4.665 12.835c0 2.236.585 4.44 1.69 6.37a12.92 12.92 0 003.962 4.267V35h14.366V23.472a12.92 12.92 0 003.961-4.267 12.833 12.833 0 001.69-6.37C30.335 5.758 24.578 0 17.5 0zm-5.132 26.79h10.264v2.054H12.368V26.79zm1.027-12.928a1.029 1.029 0 01-1.027-1.027 1.028 1.028 0 012.054 0c0 .566-.46 1.027-1.027 1.027zm5.132 2.05v8.827h-2.054v-8.827h2.054zm2.05-3.078a1.028 1.028 0 012.055 0 1.028 1.028 0 01-2.054 0zM12.369 32.95v-2.054h10.264v2.054H12.368zm14.497-14.763a10.86 10.86 0 01-3.743 3.852l-.49.3v2.401h-2.054v-8.827h1.027a3.081 3.081 0 003.078-3.078 3.081 3.081 0 00-3.078-3.077 3.081 3.081 0 00-2.901 4.105h-2.408a3.081 3.081 0 00-2.9-4.105 3.081 3.081 0 00-3.079 3.077 3.081 3.081 0 003.078 3.078h1.027v8.827h-2.054v-2.4l-.49-.3a10.86 10.86 0 01-3.743-3.854 10.78 10.78 0 01-1.419-5.35C6.716 6.888 11.554 2.05 17.5 2.05s10.784 4.837 10.784 10.784c0 1.88-.491 3.73-1.42 5.35z" fill="#3D4B69"/></svg>