<svg width="25" height="25" viewBox="0 0 25 25" fill="none" xmlns="http://www.w3.org/2000/svg"><g clip-path="url(#clip0)" fill="#fff"><path d="M22.995 9.383l-1.607-1.608V4.588a1.955 1.955 0 00-1.954-1.954H16.25L13.761.144A.489.489 0 0013.416 0h-1.82a.488.488 0 00-.345.143L8.758 2.634H5.566a1.956 1.956 0 00-1.954 1.954V7.78L2.006 9.383a2.499 2.499 0 00-.738 1.78v11.322a2.506 2.506 0 00.77 1.808A2.506 2.506 0 003.784 25h6.519a.488.488 0 000-.977h-6.52c-.246 0-.479-.058-.685-.162l5.756-5.756 1.873 1.873a2.498 2.498 0 001.778.736h.001a2.5 2.5 0 001.779-.737l1.866-1.867 5.751 5.751a1.53 1.53 0 01-.686.162h-6.519a.488.488 0 000 .977h6.52a2.506 2.506 0 001.808-.77 2.506 2.506 0 00.707-1.745V11.162c0-.672-.262-1.303-.737-1.779zm-1.607-.226l.917.917c.084.085.157.178.22.277l-1.137 1.137V9.156zm-9.59-8.18h1.415l1.657 1.657h-4.73L11.799.977zm-9.102 9.097l.916-.914v2.327L2.476 10.35c.062-.1.135-.192.22-.277zm-.289 13.097a1.529 1.529 0 01-.162-.686V11.5l5.918 5.914-5.756 5.756zm11.187-3.884c-.29.29-.677.45-1.088.45-.411 0-.797-.16-1.088-.45l-6.829-6.824V4.588c0-.539.438-.977.977-.977h13.868c.539 0 .977.438.977.977v3.327a.496.496 0 000 .117v4.434l-6.817 6.82zm9.161 3.198c0 .246-.058.479-.162.686l-5.752-5.752 5.914-5.917v10.983z"/><path d="M12.5 24.023a.492.492 0 00-.488.489.492.492 0 00.488.488.49.49 0 00.345-.834.492.492 0 00-.345-.143zm0-18.363a4.616 4.616 0 00-4.61 4.61 4.68 4.68 0 004.673 4.674h2.968a.488.488 0 100-.977h-2.968a3.701 3.701 0 01-3.697-3.697A3.638 3.638 0 0112.5 6.636a3.638 3.638 0 013.634 3.634v1a.698.698 0 01-1.395 0v-1.13a2.427 2.427 0 00-2.425-2.425 2.552 2.552 0 00-2.55 2.55 2.552 2.552 0 002.55 2.55h.777a.488.488 0 100-.977h-.777a1.575 1.575 0 01-1.573-1.573c0-.867.706-1.573 1.573-1.573.799 0 1.448.65 1.448 1.448v1.13c0 .924.751 1.675 1.675 1.675.923 0 1.674-.751 1.674-1.674V10.27A4.616 4.616 0 0012.5 5.66z"/></g><defs><clipPath id="clip0"><path fill="#fff" d="M0 0h25v25H0z"/></clipPath></defs></svg>