<svg width="20" height="20" viewBox="0 0 20 20" fill="none" xmlns="http://www.w3.org/2000/svg"><path d="M16.377 14.452H3.623a.589.589 0 01-.487-.257c-1.683-2.468-1.812-7.215-1.821-7.92l-.001-.083a.59.59 0 011.178-.002l.001.1a3.125 3.125 0 003.12 3.024c1.721 0 3.121-1.4 3.121-3.122a.59.59 0 01.59-.589h1.352a.59.59 0 01.59.59c0 1.72 1.4 3.12 3.12 3.12a3.125 3.125 0 003.122-3.123.589.589 0 011.178.002l-.001.084c-.01.704-.14 5.451-1.822 7.919a.59.59 0 01-.486.257z" fill="#FFF780"/><path d="M18.098 5.603h-.001a.589.589 0 00-.59.587v.096a3.125 3.125 0 01-3.12 3.028 3.125 3.125 0 01-3.122-3.122.589.589 0 00-.589-.589H10v8.849h6.377a.589.589 0 00.486-.257c1.683-2.468 1.812-7.215 1.822-7.92v-.083a.59.59 0 00-.587-.589z" fill="#FFC02E"/><path d="M10 3.594c-1.05 0-1.903.853-1.903 1.903S8.95 7.4 10 7.4s1.903-.854 1.903-1.903c0-1.05-.854-1.903-1.903-1.903z" fill="#FFC02E"/><path d="M10 3.594V7.4c1.05 0 1.903-.854 1.903-1.903 0-1.05-.854-1.903-1.903-1.903z" fill="#FFA73B"/><path d="M1.903 5.062a1.905 1.905 0 000 3.808c1.05 0 1.903-.854 1.903-1.904a1.906 1.906 0 00-1.903-1.903z" fill="#FFC02E"/><path d="M18.096 5.062A1.904 1.904 0 1020 6.965a1.906 1.906 0 00-1.904-1.903z" fill="#FFA73B"/><path d="M16.377 16.384H3.623a.589.589 0 01-.59-.588v-1.757h13.933v1.757a.589.589 0 01-.59.588z" fill="#FFC02E"/><path d="M10 16.384h6.377a.589.589 0 00.589-.588v-1.757H10v2.345z" fill="#FFA73B"/></svg>