<svg width="17" height="17" viewBox="0 0 17 17" fill="none" xmlns="http://www.w3.org/2000/svg"><g clip-path="url(#clip0)"><path d="M8.491 15.318l-.07-.182-.829-5.7L5.067 4.63H.847l-.83.899.003.002H0a.5.5 0 00.12.299l8.134 9.545a.38.38 0 00.237.115l.019-.13-.019-.041z" fill="#01D0FB"/><path d="M17 5.528l-.726-.969h-5.43l-2.386 10.1.034.83c.063-.014.192-.062.238-.115l8.14-9.545a.5.5 0 00.119-.293L17 5.528z" fill="#36D0FF"/><path d="M4.687 5.53h7.645l-3.84 9.959L4.687 5.53z" fill="#99E6FC"/><path d="M16.948 5.305c.032.072.045.15.041.225h-4.657l2.801-3.847.108-.134c.06.032.109.085.137.15l1.57 3.606z" fill="#37C2FF"/><path d="M15.241 1.549l-.108.134-2.801 3.847-2.68-3.985v-.034h5.44c.053 0 .104.013.15.038z" fill="#DFF6FD"/><path d="M9.652 1.51v.035l2.68 3.985H4.687l2.679-3.985v-.034h2.286z" fill="#C8EFFE"/><path d="M7.366 1.545L4.686 5.53 1.885 1.683l-.106-.148a.308.308 0 01.119-.024h5.468v.034z" fill="#99E6FC"/><path d="M1.885 1.683L4.686 5.53H.001a.5.5 0 01.04-.225L1.612 1.7a.313.313 0 01.168-.164l.106.148z" fill="#62DBFB"/><path d="M3.587 13.601v1.442a.178.178 0 01-.188.178c-.782-.04-1.282-.351-1.499-.932a.178.178 0 01.092-.223l1.342-.626a.178.178 0 01.253.161zm-.848-1.721l-1.356.49a.178.178 0 01-.231-.115c-.229-.75-.107-1.326.365-1.728a.178.178 0 01.24.01l1.047 1.05a.178.178 0 01-.065.292zm10.622 1.721v1.442c0 .102.086.183.188.178.783-.04 1.282-.351 1.5-.932a.178.178 0 00-.093-.223l-1.342-.626a.178.178 0 00-.253.161zm.849-1.721l1.355.49a.178.178 0 00.232-.115c.228-.75.106-1.326-.366-1.728a.178.178 0 00-.24.01l-1.046 1.05a.178.178 0 00.065.292z" fill="#FEDF30"/></g><defs><clipPath id="clip0"><path fill="#fff" d="M0 0h17v17H0z"/></clipPath></defs></svg>