<svg width="50" height="53" viewBox="0 0 50 53" fill="none" xmlns="http://www.w3.org/2000/svg"><g filter="url(#filter0_d)"><path d="M25 5.208a19.792 19.792 0 100 39.583 19.792 19.792 0 000-39.583z" fill="#4267B2"/><path d="M27.68 30.246h5.12l.804-5.203h-5.927v-2.844c0-2.162.706-4.078 2.728-4.078h3.25v-4.54c-.572-.078-1.779-.247-4.06-.247-4.764 0-7.556 2.516-7.556 8.247v3.462h-4.897v5.203h4.897v14.3c.97.147 1.952.246 2.96.246.911 0 1.801-.084 2.68-.202V30.246z" fill="#fff"/></g><defs><filter id="filter0_d" x="-4" y="0" width="58" height="58" filterUnits="userSpaceOnUse" color-interpolation-filters="sRGB"><feFlood flood-opacity="0" result="BackgroundImageFix"/><feColorMatrix in="SourceAlpha" values="0 0 0 0 0 0 0 0 0 0 0 0 0 0 0 0 0 0 127 0"/><feOffset dy="4"/><feGaussianBlur stdDeviation="2"/><feColorMatrix values="0 0 0 0 0 0 0 0 0 0 0 0 0 0 0 0 0 0 0.25 0"/><feBlend in2="BackgroundImageFix" result="effect1_dropShadow"/><feBlend in="SourceGraphic" in2="effect1_dropShadow" result="shape"/></filter></defs></svg>