<svg width="30" height="30" viewBox="0 0 30 30" fill="none" xmlns="http://www.w3.org/2000/svg"><path d="M24.69 7.285a.197.197 0 00-.003-.025c-.031-.044-.07-.083-.102-.126a12.831 12.831 0 00-1.802-1.98c-.055-.048-.106-.098-.16-.145a12.518 12.518 0 00-2.37-1.6l-.105-.051a12.423 12.423 0 00-1.161-.518c-.09-.032-.171-.062-.256-.089a12.425 12.425 0 00-1.072-.333c-.107-.029-.214-.058-.323-.083a12.494 12.494 0 00-1.08-.198c-.11-.016-.22-.038-.331-.051a11.742 11.742 0 00-2.833 0c-.112.013-.221.035-.332.05-.365.052-.726.116-1.08.199-.109.025-.216.054-.323.083a12.08 12.08 0 00-1.072.333c-.09.03-.17.06-.255.09a12.42 12.42 0 00-1.161.517l-.105.05c-.851.441-1.65.978-2.378 1.6-.055.048-.106.098-.16.147a11.62 11.62 0 00-1.061 1.06c-.262.294-.509.6-.742.919-.032.043-.07.082-.102.126a.204.204 0 00-.01.025 12.422 12.422 0 000 14.43.192.192 0 00.01.024c.032.045.07.084.102.127a12.493 12.493 0 001.803 1.98c.054.048.105.098.16.145a12.45 12.45 0 002.37 1.6c.034.018.07.034.105.051.377.192.765.365 1.16.518.09.032.171.062.256.089.352.127.71.238 1.072.333.107.029.214.058.323.083.358.083.715.146 1.08.198.11.016.22.038.332.051.94.115 1.892.115 2.833 0 .111-.013.22-.035.331-.05.365-.053.726-.116 1.08-.199.109-.025.216-.054.323-.083.366-.095.723-.206 1.072-.333.09-.03.17-.06.256-.09.395-.152.783-.325 1.16-.517l.105-.05a12.524 12.524 0 002.37-1.6c.055-.048.106-.098.16-.146a11.367 11.367 0 001.062-1.061c.261-.295.508-.6.741-.919.032-.043.07-.082.102-.127a.208.208 0 00.01-.024 12.422 12.422 0 000-14.43zm-1.02 1.69a10.626 10.626 0 011.507 4.632h-5.35a16.66 16.66 0 00-.5-3.152 16.052 16.052 0 004.343-1.48zm-6.893-4.946c.05.012.098.028.148.04.32.075.637.16.947.267l.14.052c.308.107.61.226.907.358.052.024.102.05.154.075.284.135.562.28.833.438l.178.108a10.03 10.03 0 01.937.645c.238.178.467.37.684.573.058.052.117.103.173.157.229.217.447.446.657.684l.082.09c-1.209.575-2.49.987-3.809 1.223a22.706 22.706 0 00-2.404-4.771c.124.022.25.034.373.061zm-5.813 9.578c.07-.966.235-1.924.491-2.858a25.646 25.646 0 006.101-.005c.256.936.42 1.895.49 2.863h-7.082zm7.081 1.786c-.07.966-.235 1.924-.491 2.858-1.012-.12-2.03-.18-3.05-.178a25.5 25.5 0 00-3.051.178 14.885 14.885 0 01-.489-2.858h7.081zm-3.54-11.028a21.58 21.58 0 012.489 4.644 23.53 23.53 0 01-2.49.132 23.82 23.82 0 01-2.486-.133 21.738 21.738 0 012.487-4.643zm-8.03 3.06c.21-.238.429-.467.657-.684.057-.054.116-.105.173-.157.22-.2.448-.392.684-.574.062-.047.124-.09.187-.14.243-.178.493-.346.75-.504l.178-.108c.271-.158.549-.304.833-.438.052-.025.103-.051.155-.075.296-.134.599-.253.906-.358.046-.017.09-.035.14-.051.31-.104.626-.19.947-.268.05-.012.098-.028.15-.039.122-.027.248-.04.373-.061a22.71 22.71 0 00-2.406 4.771 14.983 14.983 0 01-3.81-1.223l.083-.091zm-1.136 1.55a16.046 16.046 0 004.342 1.48 16.664 16.664 0 00-.499 3.152h-5.35c.137-1.64.653-3.226 1.507-4.633zm0 11.05a10.626 10.626 0 01-1.507-4.632h5.35c.066 1.064.233 2.12.5 3.152a16.047 16.047 0 00-4.343 1.48zm6.893 4.946c-.05-.012-.098-.028-.148-.04a9.622 9.622 0 01-.947-.267c-.047-.016-.093-.035-.14-.052a12.02 12.02 0 01-.906-.357c-.052-.024-.103-.051-.155-.075a11.51 11.51 0 01-.832-.439l-.18-.108a10.365 10.365 0 01-.75-.505c-.062-.045-.124-.089-.186-.139a8.14 8.14 0 01-.684-.574c-.057-.052-.116-.103-.173-.157a11.059 11.059 0 01-.657-.684l-.082-.089c1.21-.576 2.49-.988 3.81-1.224a22.71 22.71 0 002.404 4.771c-.124-.022-.251-.034-.374-.061zm2.273-.336a21.54 21.54 0 01-2.49-4.644 23.258 23.258 0 014.977 0 21.732 21.732 0 01-2.487 4.644zm8.03-3.06c-.21.238-.43.467-.658.684-.056.054-.115.105-.172.157a10.648 10.648 0 01-1.622 1.218l-.178.108c-.27.158-.548.304-.833.438l-.154.076c-.297.134-.6.252-.907.357-.046.017-.09.035-.14.052-.31.103-.625.189-.947.268-.05.011-.098.027-.149.038-.122.027-.25.04-.373.062a22.707 22.707 0 002.404-4.771c1.319.235 2.6.647 3.81 1.223l-.082.09zm1.136-1.55a16.049 16.049 0 00-4.343-1.48c.267-1.032.434-2.088.5-3.152h5.35a10.628 10.628 0 01-1.508 4.633z" fill="#fff"/></svg>