<svg width="35" height="35" viewBox="0 0 35 35" fill="none" xmlns="http://www.w3.org/2000/svg"><path d="M33.972.001c-7.339.007-14.53 3.096-19.73 8.476l-1.849 1.85-1.966-1.966-5.803 1.638L0 14.623l4.048 4.048.21.21-1.905 3.928 1.255 1.255-3.07 3.07 1.45 1.45 3.07-3.07L6.545 27 .042 33.501l1.45 1.45 6.502-6.501 1.485 1.484-3.07 3.07 1.45 1.45 3.07-3.07 1.255 1.256 3.929-1.904 4.257 4.257 4.624-4.623 1.644-5.799-1.971-1.97 1.849-1.85a28.165 28.165 0 006.146-8.814C35.43 5.679 34.938.656 35 0l-1.028.001zM5.696 11.827l4.131-1.166 1.116 1.116-5.444 5.444L2.9 14.623l2.795-2.796zm6.907 18.33L4.835 22.39l.958-1.974 8.785 8.785-1.975.957zm11.733-4.986l-1.17 4.126-2.796 2.796-2.598-2.598 5.444-5.444 1.12 1.12zm.75-5.89l-1.87 1.87-6.894 6.893-9.373-9.373 6.894-6.894 1.868-1.868c4.568-4.73 10.792-7.55 17.213-7.833-.283 6.426-3.105 12.646-7.838 17.205z" fill="#3D4B69"/><path d="M25.125 16.48a4.683 4.683 0 00.004-6.616 4.642 4.642 0 00-3.305-1.367 4.667 4.667 0 00-4.675 4.674c0 1.25.486 2.424 1.368 3.306 1.805 1.805 4.776 1.836 6.608.003zm-3.301-5.932c.701 0 1.36.273 1.854.767a2.63 2.63 0 01-.003 3.715 2.597 2.597 0 01-1.85.76 2.614 2.614 0 01-2.625-2.62c0-.701 1.187-2.622 2.624-2.622z" fill="#3D4B69"/></svg>