<svg width="47" height="50" viewBox="0 0 47 50" fill="none" xmlns="http://www.w3.org/2000/svg"><g filter="url(#filter0_d)"><path d="M15.063 40.578h16.874c5.317 0 9.641-4.324 9.641-9.64V14.063c0-5.317-4.324-9.641-9.64-9.641H15.063c-5.317 0-9.641 4.324-9.641 9.64v16.876c0 5.316 4.324 9.64 9.64 9.64zM7.827 14.062c0-3.988 3.246-7.234 7.234-7.234h16.876c3.988 0 7.234 3.246 7.234 7.234v16.876c0 3.988-3.246 7.234-7.234 7.234H15.063c-3.989 0-7.235-3.246-7.235-7.234V14.063z" fill="url(#paint0_linear)" stroke="url(#paint1_linear)"/><path d="M23.5 31.64c-5.04 0-9.14-4.1-9.14-9.14 0-5.04 4.1-9.14 9.14-9.14 5.04 0 9.14 4.1 9.14 9.14 0 5.04-4.1 9.14-9.14 9.14zm0-15.468a6.336 6.336 0 00-6.328 6.328c0 3.49 2.84 6.328 6.328 6.328a6.335 6.335 0 006.328-6.328 6.335 6.335 0 00-6.328-6.328z" fill="url(#paint2_linear)"/><path d="M33.344 10.547a2.11 2.11 0 100 4.219 2.11 2.11 0 000-4.22z" fill="url(#paint3_linear)"/></g><defs><linearGradient id="paint0_linear" x1="23.5" y1="4.922" x2="23.5" y2="40.078" gradientUnits="userSpaceOnUse"><stop stop-color="#F8E11B"/><stop offset=".568" stop-color="#F30001"/><stop offset="1" stop-color="#C50097"/></linearGradient><linearGradient id="paint1_linear" x1="23.5" y1="4.922" x2="23.5" y2="40.078" gradientUnits="userSpaceOnUse"><stop stop-color="#F8E219"/><stop offset=".547" stop-color="#F41804"/><stop offset="1" stop-color="#C03D74"/></linearGradient><linearGradient id="paint2_linear" x1="23.5" y1="13.359" x2="23.5" y2="31.641" gradientUnits="userSpaceOnUse"><stop stop-color="#F89F1B"/><stop offset=".568" stop-color="#F30001"/><stop offset="1" stop-color="#C50097"/></linearGradient><linearGradient id="paint3_linear" x1="33.344" y1="10.547" x2="33.344" y2="14.766" gradientUnits="userSpaceOnUse"><stop stop-color="#F89F1B"/><stop offset=".568" stop-color="#F30001"/><stop offset="1" stop-color="#C50097"/></linearGradient><filter id="filter0_d" x="-3" y="0" width="53" height="53" filterUnits="userSpaceOnUse" color-interpolation-filters="sRGB"><feFlood flood-opacity="0" result="BackgroundImageFix"/><feColorMatrix in="SourceAlpha" values="0 0 0 0 0 0 0 0 0 0 0 0 0 0 0 0 0 0 127 0"/><feOffset dy="4"/><feGaussianBlur stdDeviation="2"/><feColorMatrix values="0 0 0 0 0 0 0 0 0 0 0 0 0 0 0 0 0 0 0.25 0"/><feBlend in2="BackgroundImageFix" result="effect1_dropShadow"/><feBlend in="SourceGraphic" in2="effect1_dropShadow" result="shape"/></filter></defs></svg>