<svg width="33" height="40" viewBox="0 0 33 40" fill="none" xmlns="http://www.w3.org/2000/svg"><path d="M19.32 7.031h-5.64a16.528 16.528 0 01-6.436 4.374v7.17c0 6.063 3.616 11.5 9.256 13.99 5.64-2.49 9.256-7.927 9.256-13.99v-7.17a16.516 16.516 0 01-6.436-4.374zm3.668 10.08l-7.513 7.292a1.223 1.223 0 01-.853.344c-.309 0-.618-.115-.854-.344l-3.756-3.645a1.15 1.15 0 010-1.658 1.235 1.235 0 011.708 0l2.902 2.817 6.659-6.462a1.233 1.233 0 011.707 0 1.148 1.148 0 010 1.657zM31.785 5.47c-3.48 0-6.65-1.857-8.274-4.844A1.212 1.212 0 0022.444 0H10.556c-.448 0-.859.24-1.068.625-1.624 2.987-4.793 4.844-8.28 4.844C.54 5.469 0 5.994 0 6.64v11.933c0 4.798 1.545 9.38 4.466 13.249 2.922 3.87 6.957 6.678 11.67 8.122a1.23 1.23 0 00.728 0c4.713-1.444 8.748-4.253 11.67-8.122C31.455 27.953 33 23.372 33 18.574V6.641c0-.647-.548-1.172-1.215-1.172zm-3.614 13.05c0 7.177-4.399 13.595-11.207 16.35a1.238 1.238 0 01-.928 0C9.228 32.115 4.829 25.697 4.829 18.52v-7.994c0-.506.335-.955.83-1.113a14.126 14.126 0 006.527-4.35c.23-.272.573-.43.935-.43h6.758c.37 0 .806.278.935.43a14.126 14.126 0 006.526 4.35c.353.113.624.373.751.697l.004.01c.03.08.052.165.065.252l.003.026c.005.042.008.085.008.128v7.994z" fill="url(#paint0_linear)"/><defs><linearGradient id="paint0_linear" x1="16.5" y1="0" x2="16.5" y2="40" gradientUnits="userSpaceOnUse"><stop stop-color="#0AF0FF"/><stop offset="1" stop-color="#6AC1FF"/></linearGradient></defs></svg>