<svg width="34" height="34" viewBox="0 0 34 34" fill="none" xmlns="http://www.w3.org/2000/svg"><g clip-path="url(#clip0)" fill="#7254AE"><path d="M5.227 30.947h4.802V24.97h1.992v-1.993h-1.992v-1.992h.792l12.22 5.212c.608.26 1.001.854 1.001 1.515v1.243h1.992v-9.347l3.985-1.992v-3.224L26.034 12.4V3.053h-1.992v1.243c0 .66-.393 1.255-1 1.514l-12.22 5.213H0v9.962h3.235l1.992 9.962zm20.807-16.32l1.993.996v.761l-1.993.997v-2.754zm-14.013-1.95C24.566 7.323 23.826 7.65 24.042 7.541v16.926c-.216-.11.526.22-12.021-5.136v-6.654zM8.036 28.955H6.86l-1.594-7.97h2.77v7.97zm-6.044-15.94h8.037v5.977H1.992v-5.977zm27.1-1.902l4.04-1.995.882 1.787-4.04 1.995-.882-1.787zm.008 9.772l.883-1.787 4.039 1.994-.883 1.788-4.039-1.995z"/></g><defs><clipPath id="clip0"><path fill="#fff" d="M0 0h34v34H0z"/></clipPath></defs></svg>