<svg width="40" height="40" viewBox="0 0 40 40" fill="none" xmlns="http://www.w3.org/2000/svg"><g clip-path="url(#clip0)"><path d="M37.727 17.042c-.616-.454-1.384-1.021-1.485-1.397-.11-.412.281-1.315.598-2.04.543-1.245 1.103-2.536.48-3.609-.628-1.087-2.038-1.247-3.4-1.4-.777-.087-1.744-.194-2.033-.485-.29-.29-.398-1.257-.485-2.033-.153-1.362-.312-2.77-1.4-3.4-.946-.55-2.348-.07-3.609.48-.696.303-1.423.591-2.042.598-.375-.1-.94-.87-1.396-1.485C22.172 1.207 21.283 0 20 0c-1.282 0-2.172 1.207-2.957 2.271-.455.618-1.02 1.386-1.553 1.503-.47 0-1.19-.313-1.885-.616-1.264-.55-2.668-1.024-3.607-.48-1.09.63-1.248 2.039-1.402 3.402-.087.777-.194 1.743-.483 2.033-.29.289-1.257.398-2.033.484-1.364.153-2.774.313-3.402 1.4-.62 1.073-.06 2.361.48 3.608.317.726.71 1.63.598 2.042-.1.376-.867.943-1.485 1.397C1.207 17.826 0 18.716 0 20c0 1.283 1.207 2.174 2.273 2.958.616.454 1.384 1.021 1.485 1.397.11.412-.281 1.314-.598 2.04-.543 1.245-1.103 2.535-.48 3.608.628 1.087 2.038 1.247 3.4 1.4.777.087 1.744.195 2.033.486.29.29.398 1.257.485 2.033.153 1.361.312 2.77 1.4 3.4.941.548 2.343.07 3.607-.48.696-.303 1.41-.61 2.042-.599.376.101.94.87 1.397 1.486C17.828 38.793 18.717 40 20 40c1.282 0 2.172-1.207 2.957-2.271.455-.618 1.02-1.386 1.553-1.505.47 0 1.19.313 1.885.616 1.268.55 2.668 1.026 3.607.482 1.09-.63 1.248-2.039 1.402-3.402.087-.777.194-1.743.483-2.033.29-.29 1.257-.398 2.033-.485 1.364-.153 2.774-.312 3.402-1.4.62-1.073.06-2.362-.48-3.609-.317-.725-.708-1.63-.598-2.04.1-.376.867-.943 1.485-1.397C38.793 22.174 40 21.283 40 20c0-1.284-1.207-2.174-2.273-2.958zm-22.075 6.436a.87.87 0 01-1.565.522l-3.652-4.87v4.348a.87.87 0 01-1.74 0v-6.956A.87.87 0 0110.262 16l3.652 4.87v-4.348a.87.87 0 011.74 0v6.956zm6.087-4.348a.87.87 0 010 1.74H19.13v1.739h2.61a.87.87 0 010 1.739h-3.48a.87.87 0 01-.869-.87v-6.956c0-.48.39-.87.87-.87h3.478a.87.87 0 010 1.74H19.13v1.738h2.61zm11.278-2.398l-1.739 6.957a.868.868 0 01-.81.657h-.035a.871.871 0 01-.826-.595l-.911-2.74-.913 2.742a.828.828 0 01-.86.593.87.87 0 01-.81-.657l-1.74-6.957a.87.87 0 011.688-.42l1.014 4.058.794-2.384c.239-.71 1.414-.71 1.65 0l.796 2.384 1.013-4.059a.865.865 0 011.055-.633c.47.117.75.59.634 1.054z" fill="url(#paint0_linear)"/></g><defs><linearGradient id="paint0_linear" x1="20" y1="0" x2="20" y2="40" gradientUnits="userSpaceOnUse"><stop stop-color="#FAFF00"/><stop offset="1" stop-color="#FF8A00"/></linearGradient><clipPath id="clip0"><path fill="#fff" d="M0 0h40v40H0z"/></clipPath></defs></svg>