<svg width="30" height="31" viewBox="0 0 30 31" fill="none" xmlns="http://www.w3.org/2000/svg"><path d="M4.615 11.64a1.16 1.16 0 01-1.153-1.163V8.149a1.16 1.16 0 011.153-1.164h11.539a1.16 1.16 0 011.154 1.164v2.328a1.16 1.16 0 01-1.154 1.164H4.615z" fill="#3D4B69"/><path d="M23.077 26.773H5.769s-4.615.056-4.615-4.689V3.493h17.308" stroke="#3D4B69" stroke-width="2" stroke-miterlimit="10" stroke-linecap="round" stroke-linejoin="round"/><path d="M24.23 26.773H5.77s-4.616.056-4.616-4.689V3.493h18.461" stroke="#3D4B69" stroke-width="2" stroke-miterlimit="10" stroke-linecap="round" stroke-linejoin="round"/><path d="M28.846 22.117c0 4.658-4.615 4.656-4.615 4.656s-4.616-.018-4.616-4.689V3.493" stroke="#3D4B69" stroke-width="2" stroke-miterlimit="10" stroke-linecap="round" stroke-linejoin="round"/><path d="M11.539 22.117h4.615m8.077-1.164V9.313s.054-2.328 2.307-2.328c2.254 0 2.308 2.36 2.308 2.36v12.772l-4.615-1.164zm2.307-13.994h-6.884 6.884zM4.616 15.133h3.462-3.462zm0 3.492h3.462-3.462zm6.924-3.492h4.615-4.615zm0 3.492h4.615-4.615zm-6.347 3.492h2.885-2.885z" stroke="#3D4B69" stroke-width="2" stroke-miterlimit="10" stroke-linecap="round" stroke-linejoin="round"/></svg>