<svg width="17" height="17" viewBox="0 0 17 17" fill="none" xmlns="http://www.w3.org/2000/svg"><path d="M15.26 9.614l.533 3.019-2.88 1.048-1.533 2.655-2.87-1.044V.008l2.338 1.961h3.065l.532 3.019 2.349 1.97-1.533 2.655z" fill="#FF9F22"/><path d="M8.51.009V15.29l-.01-.003-2.88 1.048-1.534-2.655-2.88-1.048.532-3.019L.206 6.96l2.348-1.971.532-3.019h3.065L8.5 0l.01.009z" fill="#FFDA44"/><path d="M11.64 7.314L8.51 9.66V7.821l2.247-1.685.883 1.178z" fill="#fff"/><path d="M8.51 7.821v1.84l-1.347 1.01-1.92-2.24 1.117-.958 1.023 1.194 1.128-.846z" fill="#FFFBC9"/></svg>