<svg width="30" height="30" viewBox="0 0 30 30" fill="none" xmlns="http://www.w3.org/2000/svg"><circle cx="15" cy="15" r="15" fill="#6184D8"/><g clip-path="url(#clip0)"><path d="M5.926 16.373L2 12.447l3.302-3.301 4.144-1.17 2.438 2.438-5.958 5.96z" fill="#C3DAFD"/><path d="M16.548 26.996l-3.925-3.926 5.958-5.959 2.443 2.443-1.174 4.14-3.302 3.302z" fill="#A1B8D8"/><path d="M2.026 25.931l5.161-5.16 1.034 1.033-5.161 5.161-1.034-1.034z" fill="#ECC443"/><path d="M2.549 26.452l5.161-5.16.512.511-5.161 5.161-.512-.512zm4.025-.876l2.71-2.71 1.034 1.034-2.71 2.71-1.034-1.034z" fill="#E39069"/><path d="M2.382 21.383l2.71-2.71 1.034 1.034-2.71 2.71-1.034-1.034z" fill="#ECC443"/><path d="M14.207 22.18l-7.384-7.384-1.927.547-1.241 2.925 7.02 7.021 2.986-1.18.546-1.929z" fill="#2B4CA1"/><path d="M10.321 18.687l-3.124 3.124 3.478 3.478 2.986-1.18.35-1.732-3.69-3.69z" fill="#213B82"/><path d="M25.33 10.531c1.973-4.46 1.627-8.066 1.67-8.524-.27.054-8.287-.71-14.825 6.055l-7.28 7.28 8.765 8.765 7.28-7.28a20.115 20.115 0 004.39-6.296z" fill="#E4F3FF"/><path d="M25.33 10.531c1.973-4.46 1.627-8.066 1.67-8.524h-.001l-17.72 17.72 4.381 4.38 7.28-7.28a20.115 20.115 0 004.39-6.296z" fill="#C3DAFD"/><path d="M15.23 13.775c-2.077-2.077-.633-5.695 2.36-5.697 2.969-.002 4.45 3.609 2.358 5.7a3.34 3.34 0 01-4.718-.003z" fill="#84D9F3"/><path d="M19.952 9.056l-4.72 4.72a3.34 3.34 0 004.716.002c1.407-1.407 1.197-3.503.004-4.722z" fill="#77B0FB"/></g><defs><clipPath id="clip0"><path fill="#fff" transform="translate(2 2)" d="M0 0h25v25H0z"/></clipPath></defs></svg>