<svg width="40" height="40" viewBox="0 0 40 40" fill="none" xmlns="http://www.w3.org/2000/svg"><path d="M19.214 11.034h16.648a2.759 2.759 0 012.759 2.76v19.31H4.828v-15.09l14.386-6.98z" fill="#35495E"/><path d="M38.62 13.793v2.759H7.842l11.373-5.518h16.648a2.759 2.759 0 012.759 2.76z" fill="#3B97D3"/><path d="M35.862 40H7.586a4.138 4.138 0 01-4.138-4.138v-2.069c0-.38.309-.69.69-.69H39.31c.381 0 .69.31.69.69v2.07A4.138 4.138 0 0135.862 40z" fill="#95A5A5"/><path d="M16.552 33.103h10.345v1.38a2.069 2.069 0 01-2.07 2.069h-6.206a2.069 2.069 0 01-2.07-2.07v-1.379zm-3.449 3.449h-2.069a.69.69 0 110-1.38h2.07a.69.69 0 010 1.38z" fill="#7F8C8D"/><path d="M6.897 36.552a.69.69 0 100-1.38.69.69 0 000 1.38z" fill="#955BA5"/><path d="M8.966 36.552a.69.69 0 100-1.38.69.69 0 000 1.38zm.689-17.242a9.655 9.655 0 009.655-9.655 9.655 9.655 0 10-9.655 9.655z" fill="#F0C419"/><path d="M10.345 9.02V4.884c1.186.227 2.069 1.034 2.069 1.993a.69.69 0 001.38 0c0-1.704-1.497-3.124-3.45-3.393V2.76a.69.69 0 10-1.378 0v.744c-1.952.27-3.449 1.69-3.449 3.394 0 1.703 1.497 3.124 3.449 3.393v4.138c-1.187-.228-2.07-1.035-2.07-1.994a.69.69 0 10-1.379 0c0 1.704 1.497 3.125 3.449 3.394v.724a.69.69 0 101.379 0v-.745c1.952-.27 3.448-1.69 3.448-3.393 0-1.704-1.496-3.124-3.448-3.393zM6.897 6.898c0-.96.882-1.766 2.069-1.994V8.89c-1.187-.228-2.07-1.035-2.07-1.993zm3.448 7.51V10.42c1.186.227 2.069 1.034 2.069 1.993 0 .958-.883 1.765-2.07 1.993z" fill="#E57E25"/><path d="M34.483 20.69a6.014 6.014 0 01-2.759 4.965v2.62a1.38 1.38 0 01-1.38 1.38h-5.516a1.38 1.38 0 01-1.38-1.38v-2.62a6.014 6.014 0 01-2.758-4.965c0-3.449 3.09-6.207 6.896-6.207 3.807 0 6.897 2.758 6.897 6.207z" fill="#ECF0F1"/><path d="M26.207 20.69h-2.069a.69.69 0 110-1.38h2.069a.69.69 0 010 1.38zm4.828 0h-2.07a.69.69 0 110-1.38h2.07a.69.69 0 010 1.38zm-3.449 3.448a.69.69 0 01-.69-.69v-1.38a.69.69 0 011.38 0v1.38a.69.69 0 01-.69.69z" fill="#3F5C6C"/><path d="M26.897 27.586v2.07h-1.38v-2.07a.69.69 0 111.38 0zm2.758 0v2.07h-1.38v-2.07a.69.69 0 011.38 0z" fill="#95A5A5"/><path d="M20.69 28.965H20a.69.69 0 110-1.379h.69a.69.69 0 010 1.38zm-3.449 0h-.69a.69.69 0 110-1.379h.69a.69.69 0 010 1.38zm-3.448 0h-.69a.69.69 0 010-1.379h.69a.69.69 0 010 1.38zm-4.138-6.206a.69.69 0 01-.69-.69v-.69a.69.69 0 111.38 0v.69a.69.69 0 01-.69.69zm0 3.448a.69.69 0 01-.69-.69v-.69a.69.69 0 111.38 0v.69a.69.69 0 01-.69.69zm.69 2.758a1.38 1.38 0 01-1.38-1.379.69.69 0 111.38 0 .69.69 0 010 1.38z" fill="#FF5364"/></svg>