<svg width="20" height="20" viewBox="0 0 20 20" fill="none" xmlns="http://www.w3.org/2000/svg"><path d="M5.744 18.804H2.277v-4.725a.2.2 0 01.201-.201h3.065c.11 0 .2.09.2.2v4.726z" fill="#FB2B3A"/><path d="M5.744 14.079v4.514h-.982v-4.514a.2.2 0 00-.201-.201h.982a.2.2 0 01.2.2z" fill="#E41F2D"/><path d="M11.733 18.804H8.267V10.78c0-.11.09-.2.2-.2h3.065a.2.2 0 01.201.2v8.023z" fill="#00C27A"/><path d="M11.733 10.781v7.812h-.982V10.78a.2.2 0 00-.2-.2h.981a.2.2 0 01.201.2z" fill="#08B865"/><path d="M17.723 18.804h-3.467V6.964c0-.11.09-.2.201-.2h3.065c.11 0 .2.09.2.2v11.84z" fill="#8AC9FE"/><path d="M17.723 6.964v11.628h-.982V6.964a.2.2 0 00-.201-.2h.982a.2.2 0 01.2.2z" fill="#60B7FF"/><path d="M4.405 7.877l.472.957a.212.212 0 00.16.116l1.056.154a.44.44 0 01.244.75l-.764.746a.213.213 0 00-.06.188l.18 1.051a.44.44 0 01-.64.465l-.944-.497a.213.213 0 00-.198 0l-.944.497a.44.44 0 01-.64-.465l.181-1.051a.213.213 0 00-.061-.188l-.764-.745a.44.44 0 01.244-.751l1.056-.154c.07-.01.13-.053.16-.116l.472-.957a.44.44 0 01.79 0z" fill="#FE9901"/><path d="M5.574 10.6a.21.21 0 00-.061.188l.18 1.052a.44.44 0 01-.64.463l-.944-.496a.211.211 0 00-.197 0l-.945.496a.44.44 0 01-.639-.463l.041-.24a.398.398 0 00.065-.028l.416-.22c.21-.11.42-.222.641-.305.182-.068.376-.094.568-.101.209-.008.516.136.645-.104.04-.073.027-.176.041-.256.066-.372.279-.703.552-.964.172-.164.337-.333.507-.499a.405.405 0 00.048-.055l.242.036a.44.44 0 01.243.751l-.763.745z" fill="#FB8801"/><path d="M10.395 4.209l.472.957a.214.214 0 00.16.116l1.056.153a.44.44 0 01.244.752l-.764.744a.213.213 0 00-.06.189l.18 1.051a.44.44 0 01-.64.464L10.1 8.14a.213.213 0 00-.198 0l-.944.496a.44.44 0 01-.64-.464l.181-1.051a.213.213 0 00-.061-.189l-.764-.744a.44.44 0 01.244-.752l1.056-.153a.21.21 0 00.16-.116l.472-.957a.44.44 0 01.79 0z" fill="#FE9901"/><path d="M11.563 6.931a.21.21 0 00-.06.188l.18 1.052a.44.44 0 01-.64.464l-.944-.496a.211.211 0 00-.198 0l-.944.496a.44.44 0 01-.64-.464l.042-.24a.398.398 0 00.064-.027l.417-.22c.21-.11.419-.222.64-.305.182-.068.376-.094.569-.101.208-.008.516.136.645-.104.04-.073.027-.176.04-.256.066-.372.28-.703.553-.965.171-.163.337-.333.506-.498a.4.4 0 00.048-.055l.242.036a.44.44 0 01.244.75l-.764.745z" fill="#FB8801"/><path d="M16.384.29l.473.956a.21.21 0 00.16.117l1.056.153a.44.44 0 01.244.751l-.764.745a.213.213 0 00-.062.188l.18 1.052a.44.44 0 01-.638.464l-.945-.496a.213.213 0 00-.198 0l-.944.496a.44.44 0 01-.639-.464l.18-1.052a.213.213 0 00-.06-.188l-.765-.745a.44.44 0 01.244-.75l1.056-.154a.21.21 0 00.16-.117l.473-.956a.44.44 0 01.79 0z" fill="#FE9901"/><path d="M17.553 3.012a.211.211 0 00-.061.188l.18 1.052a.44.44 0 01-.64.464l-.944-.497a.212.212 0 00-.197 0l-.945.497a.44.44 0 01-.639-.464l.041-.24a.4.4 0 00.065-.027l.417-.22c.209-.11.418-.222.64-.305.182-.068.376-.094.569-.102.208-.007.515.136.644-.103.04-.074.027-.176.041-.256.066-.372.279-.703.552-.965.172-.163.338-.333.507-.498a.401.401 0 00.048-.055l.242.035a.44.44 0 01.244.752l-.764.744z" fill="#FB8801"/><path d="M19.799 19.956H.201A.201.201 0 010 19.755v-.961c0-.111.09-.201.201-.201h19.598a.2.2 0 01.201.2v.962a.2.2 0 01-.201.2z" fill="#5A5A5A"/></svg>