<svg width="40" height="40" viewBox="0 0 40 40" fill="none" xmlns="http://www.w3.org/2000/svg"><path d="M11.488 37.607H4.554v-9.45c0-.222.18-.402.402-.402h6.13c.221 0 .401.18.401.402v9.45z" fill="#FB2B3A"/><path d="M11.487 28.157v9.028H9.523v-9.028a.402.402 0 00-.402-.402h1.964c.222 0 .402.18.402.402z" fill="#E41F2D"/><path d="M23.467 37.607h-6.934V21.562c0-.222.18-.402.402-.402h6.13c.222 0 .402.18.402.402v16.045z" fill="#00C27A"/><path d="M23.466 21.563v15.622h-1.963V21.563a.402.402 0 00-.402-.402h1.964c.221 0 .401.179.401.402z" fill="#08B865"/><path d="M35.446 37.607h-6.933V13.928c0-.222.18-.402.401-.402h6.13c.222 0 .402.18.402.402v23.68z" fill="#8AC9FE"/><path d="M35.446 13.929v23.256h-1.964V13.929a.402.402 0 00-.402-.402h1.964c.222 0 .402.179.402.402z" fill="#60B7FF"/><path d="M8.81 15.754l.945 1.914a.425.425 0 00.32.232l2.112.307a.88.88 0 01.488 1.503l-1.528 1.49a.425.425 0 00-.122.376l.36 2.103a.88.88 0 01-1.278.928l-1.888-.993a.426.426 0 00-.396 0l-1.89.993a.88.88 0 01-1.277-.928l.36-2.103a.425.425 0 00-.122-.377l-1.528-1.49a.88.88 0 01.488-1.502l2.112-.307a.425.425 0 00.32-.232l.945-1.914a.88.88 0 011.58 0z" fill="#FE9901"/><path d="M11.147 21.199a.422.422 0 00-.122.376l.36 2.104a.88.88 0 01-1.278.927l-1.889-.992a.423.423 0 00-.395 0l-1.889.992a.88.88 0 01-1.278-.927l.082-.48a.787.787 0 00.13-.055l.833-.438c.418-.22.837-.446 1.281-.612a3.637 3.637 0 011.137-.203c.416-.015 1.031.273 1.289-.206.079-.147.054-.353.082-.513.131-.744.557-1.406 1.104-1.929.343-.327.674-.666 1.014-.997a.818.818 0 00.095-.11l.484.072a.88.88 0 01.488 1.502l-1.528 1.489z" fill="#FB8801"/><path d="M20.79 8.418l.944 1.913a.426.426 0 00.32.233l2.112.307a.88.88 0 01.488 1.502l-1.528 1.49a.426.426 0 00-.122.376l.36 2.104a.88.88 0 01-1.277.928l-1.89-.993a.425.425 0 00-.395 0l-1.889.993a.88.88 0 01-1.278-.928l.36-2.104a.426.426 0 00-.122-.376l-1.528-1.49a.88.88 0 01.489-1.502l2.111-.307a.425.425 0 00.32-.233l.945-1.913a.88.88 0 011.58 0z" fill="#FE9901"/><path d="M23.127 13.863a.422.422 0 00-.122.376l.36 2.104a.88.88 0 01-1.279.927l-1.888-.992a.423.423 0 00-.396 0l-1.889.992a.88.88 0 01-1.277-.927l.081-.48a.805.805 0 00.13-.055l.833-.439c.418-.22.837-.445 1.281-.61a3.634 3.634 0 011.137-.204c.416-.015 1.031.273 1.289-.206.08-.148.055-.353.083-.513.13-.744.556-1.406 1.104-1.93.343-.326.674-.665 1.013-.996a.8.8 0 00.095-.11l.485.071a.88.88 0 01.487 1.503l-1.527 1.489z" fill="#FB8801"/><path d="M32.769.58l.944 1.913a.425.425 0 00.32.233l2.112.306a.88.88 0 01.488 1.503l-1.528 1.49a.425.425 0 00-.122.376l.36 2.103a.88.88 0 01-1.277.928l-1.889-.993a.426.426 0 00-.396 0l-1.889.993a.88.88 0 01-1.278-.928l.36-2.103a.426.426 0 00-.121-.377l-1.528-1.49a.88.88 0 01.488-1.502l2.111-.307a.425.425 0 00.32-.232L31.19.579a.881.881 0 011.58 0z" fill="#FE9901"/><path d="M35.106 6.024a.422.422 0 00-.122.376l.36 2.104a.88.88 0 01-1.279.928l-1.888-.993a.423.423 0 00-.395 0l-1.89.993a.88.88 0 01-1.277-.928l.082-.48a.797.797 0 00.129-.055l.833-.438c.419-.22.838-.446 1.282-.611a3.637 3.637 0 011.136-.203c.416-.016 1.032.272 1.29-.207.079-.147.054-.353.082-.513.13-.744.557-1.406 1.104-1.929.343-.327.674-.666 1.013-.997a.803.803 0 00.095-.11l.485.072a.88.88 0 01.487 1.502l-1.527 1.49z" fill="#FB8801"/><path d="M39.598 39.912H.402A.402.402 0 010 39.51v-1.923c0-.222.18-.402.402-.402h39.196c.222 0 .402.18.402.402v1.923c0 .222-.18.402-.402.402z" fill="#5A5A5A"/></svg>