<svg width="70" height="70" viewBox="0 0 70 70" fill="none" xmlns="http://www.w3.org/2000/svg"><circle cx="35" cy="35" r="35" fill="#BA99DF"/><path d="M46.874 39.626a17.434 17.434 0 00-6.65-4.172 10.113 10.113 0 004.393-8.337C44.617 21.54 40.08 17 34.5 17c-5.579 0-10.117 4.539-10.117 10.117 0 3.456 1.742 6.512 4.393 8.337a17.433 17.433 0 00-6.65 4.172A17.385 17.385 0 0017 52h2.734c0-8.142 6.624-14.766 14.766-14.766S49.266 43.858 49.266 52H52c0-4.674-1.82-9.069-5.126-12.374zM34.5 34.5c-4.07 0-7.383-3.312-7.383-7.383 0-4.07 3.312-7.383 7.383-7.383 4.07 0 7.383 3.312 7.383 7.383S38.57 34.5 34.5 34.5z" fill="#fff"/></svg>